<svg width="80" height="46" viewBox="0 0 80 46" fill="none" xmlns="http://www.w3.org/2000/svg">
<path d="M4.8291 15.2388V21H1.45996V4.64844H7.83887C9.06673 4.64844 10.1449 4.87305 11.0732 5.32227C12.0091 5.77148 12.7279 6.41162 13.2295 7.24268C13.7311 8.06624 13.9819 9.00586 13.9819 10.0615C13.9819 11.6637 13.4316 12.929 12.3311 13.8574C11.238 14.7783 9.72184 15.2388 7.78271 15.2388H4.8291ZM4.8291 12.5098H7.83887C8.72982 12.5098 9.40739 12.3001 9.87158 11.8809C10.3433 11.4616 10.5791 10.8626 10.5791 10.084C10.5791 9.28288 10.3433 8.63525 9.87158 8.14111C9.3999 7.64697 8.74854 7.39242 7.91748 7.37744H4.8291V12.5098ZM15.4307 14.812C15.4307 13.6066 15.6628 12.5322 16.127 11.5889C16.5911 10.6455 17.2575 9.91553 18.126 9.39893C19.002 8.88232 20.0164 8.62402 21.1694 8.62402C22.8091 8.62402 24.1455 9.12565 25.1787 10.1289C26.2194 11.1322 26.7996 12.4948 26.9194 14.2168L26.9419 15.0479C26.9419 16.9121 26.4215 18.4095 25.3809 19.54C24.3402 20.6631 22.9438 21.2246 21.1919 21.2246C19.4399 21.2246 18.0399 20.6631 16.9917 19.54C15.951 18.417 15.4307 16.8896 15.4307 14.958V14.812ZM18.6763 15.0479C18.6763 16.2008 18.8934 17.0843 19.3276 17.6982C19.7619 18.3047 20.3833 18.6079 21.1919 18.6079C21.978 18.6079 22.592 18.3084 23.0337 17.7095C23.4754 17.103 23.6963 16.1372 23.6963 14.812C23.6963 13.6815 23.4754 12.8055 23.0337 12.1841C22.592 11.5627 21.9705 11.252 21.1694 11.252C20.3758 11.252 19.7619 11.5627 19.3276 12.1841C18.8934 12.798 18.6763 13.7526 18.6763 15.0479ZM31.9282 8.84863L32.0293 10.2524C32.8978 9.16683 34.062 8.62402 35.522 8.62402C36.8097 8.62402 37.7681 9.00212 38.397 9.7583C39.0259 10.5145 39.3478 11.645 39.3628 13.1499V21H36.1172V13.2285C36.1172 12.5397 35.9674 12.0418 35.668 11.7349C35.3685 11.4204 34.8706 11.2632 34.1743 11.2632C33.2609 11.2632 32.5758 11.6525 32.1191 12.4312V21H28.8735V8.84863H31.9282ZM45.7192 5.86133V8.84863H47.7969V11.2295H45.7192V17.2939C45.7192 17.7432 45.8053 18.0651 45.9775 18.2598C46.1497 18.4544 46.4792 18.5518 46.9658 18.5518C47.3252 18.5518 47.6434 18.5256 47.9204 18.4731V20.9326C47.284 21.1273 46.6289 21.2246 45.9551 21.2246C43.679 21.2246 42.5186 20.0754 42.4736 17.7769V11.2295H40.6992V8.84863H42.4736V5.86133H45.7192ZM48.7627 14.812C48.7627 13.6066 48.9948 12.5322 49.459 11.5889C49.9232 10.6455 50.5895 9.91553 51.458 9.39893C52.334 8.88232 53.3485 8.62402 54.5015 8.62402C56.1411 8.62402 57.4775 9.12565 58.5107 10.1289C59.5514 11.1322 60.1317 12.4948 60.2515 14.2168L60.2739 15.0479C60.2739 16.9121 59.7536 18.4095 58.7129 19.54C57.6722 20.6631 56.2759 21.2246 54.5239 21.2246C52.772 21.2246 51.3719 20.6631 50.3237 19.54C49.283 18.417 48.7627 16.8896 48.7627 14.958V14.812ZM52.0083 15.0479C52.0083 16.2008 52.2254 17.0843 52.6597 17.6982C53.0939 18.3047 53.7153 18.6079 54.5239 18.6079C55.3101 18.6079 55.924 18.3084 56.3657 17.7095C56.8075 17.103 57.0283 16.1372 57.0283 14.812C57.0283 13.6815 56.8075 12.8055 56.3657 12.1841C55.924 11.5627 55.3026 11.252 54.5015 11.252C53.7078 11.252 53.0939 11.5627 52.6597 12.1841C52.2254 12.798 52.0083 13.7526 52.0083 15.0479Z" fill="#423939"/>
<path d="M7.50195 36.9458L11.208 24.6484H14.959L9.26514 41H5.75L0.0786133 24.6484H3.81836L7.50195 36.9458ZM19.7993 41H16.5537V28.8486H19.7993V41ZM18.8447 23.9185H22.3823L19.2715 27.3999H16.6323L18.8447 23.9185ZM29.4351 31.8921C28.9933 31.8322 28.604 31.8022 28.2671 31.8022C27.0392 31.8022 26.2344 32.2178 25.8525 33.0488V41H22.6069V28.8486H25.6729L25.7627 30.2974C26.4141 29.1818 27.3162 28.624 28.4692 28.624C28.8286 28.624 29.1655 28.6727 29.48 28.77L29.4351 31.8921ZM30.311 34.8345C30.311 32.9702 30.7528 31.4691 31.6362 30.3311C32.5272 29.193 33.7251 28.624 35.23 28.624C36.5627 28.624 37.5996 29.0807 38.3408 29.9941L38.4756 28.8486H41.418V40.5957C41.418 41.6589 41.1746 42.5835 40.688 43.3696C40.2088 44.1558 39.5312 44.7547 38.6553 45.1665C37.7793 45.5783 36.7536 45.7842 35.5781 45.7842C34.6872 45.7842 33.8187 45.6045 32.9727 45.2451C32.1266 44.8932 31.4865 44.4365 31.0522 43.875L32.4897 41.8984C33.2983 42.8044 34.2791 43.2573 35.4321 43.2573C36.2931 43.2573 36.9632 43.0252 37.4424 42.561C37.9215 42.1043 38.1611 41.453 38.1611 40.6069V39.9556C37.4124 40.8016 36.4279 41.2246 35.2075 41.2246C33.7476 41.2246 32.5646 40.6556 31.6587 39.5176C30.7603 38.3721 30.311 36.856 30.311 34.9692V34.8345ZM33.5566 35.0703C33.5566 36.1709 33.7775 37.0356 34.2192 37.6646C34.661 38.286 35.2674 38.5967 36.0386 38.5967C37.0269 38.5967 37.7344 38.2261 38.1611 37.4849V32.375C37.7269 31.6338 37.0269 31.2632 36.061 31.2632C35.2824 31.2632 34.6685 31.5814 34.2192 32.2178C33.7775 32.8542 33.5566 33.805 33.5566 35.0703ZM51.1997 39.7646C50.3986 40.738 49.2905 41.2246 47.8755 41.2246C46.5728 41.2246 45.577 40.8503 44.8882 40.1016C44.2069 39.3529 43.8587 38.256 43.8438 36.811V28.8486H47.0894V36.6987C47.0894 37.964 47.6659 38.5967 48.8188 38.5967C49.9194 38.5967 50.6756 38.2148 51.0874 37.4512V28.8486H54.3442V41H51.2896L51.1997 39.7646ZM60.2178 41H56.9609V23.75H60.2178V41ZM69.9434 41C69.7936 40.708 69.6851 40.3449 69.6177 39.9106C68.8315 40.7866 67.8096 41.2246 66.5518 41.2246C65.3613 41.2246 64.373 40.8802 63.5869 40.1914C62.8083 39.5026 62.4189 38.6341 62.4189 37.5859C62.4189 36.2982 62.8944 35.3099 63.8452 34.6211C64.8035 33.9323 66.1849 33.5841 67.9893 33.5767H69.4829V32.8804C69.4829 32.3188 69.3369 31.8696 69.0449 31.5327C68.7604 31.1958 68.3075 31.0273 67.686 31.0273C67.1395 31.0273 66.709 31.1584 66.3945 31.4204C66.0876 31.6825 65.9341 32.0418 65.9341 32.4985H62.6885C62.6885 31.7948 62.9056 31.1434 63.3398 30.5444C63.7741 29.9455 64.388 29.4775 65.1816 29.1406C65.9753 28.7962 66.8662 28.624 67.8545 28.624C69.3519 28.624 70.5386 29.0021 71.4146 29.7583C72.298 30.507 72.7397 31.5627 72.7397 32.9253V38.1924C72.7472 39.3454 72.9082 40.2176 73.2227 40.8091V41H69.9434ZM67.2593 38.7427C67.7384 38.7427 68.1802 38.6379 68.5845 38.4282C68.9888 38.2111 69.2882 37.9229 69.4829 37.5635V35.4746H68.27C66.6453 35.4746 65.7806 36.0361 65.6758 37.1592L65.6646 37.3501C65.6646 37.7544 65.8068 38.0876 66.0913 38.3496C66.3758 38.6117 66.7651 38.7427 67.2593 38.7427Z" fill="#423939"/>
<path d="M65.7974 16.5977C65.7974 15.8415 66.007 15.1414 66.4263 14.4976C66.853 13.8537 67.6317 13.1387 68.7622 12.3525C68.2756 11.7012 67.8937 11.091 67.6167 10.522C67.3397 9.94548 67.2012 9.34652 67.2012 8.7251C67.2012 7.45231 67.6017 6.41911 68.4028 5.62549C69.2114 4.82438 70.297 4.42383 71.6597 4.42383C72.88 4.42383 73.8796 4.78695 74.6582 5.51318C75.4443 6.23942 75.8374 7.14535 75.8374 8.23096C75.8374 9.53369 75.1785 10.6829 73.8608 11.6787L72.603 12.5884L75.4219 15.8677C75.8636 14.9992 76.0845 14.0409 76.0845 12.9927H78.8472C78.8472 15.119 78.3568 16.841 77.376 18.1587L79.8242 21H76.1406L75.2983 20.0342C74.0929 20.8278 72.7078 21.2246 71.1431 21.2246C69.5259 21.2246 68.2306 20.8016 67.2573 19.9556C66.284 19.1021 65.7974 17.9827 65.7974 16.5977ZM71.3003 18.6191C72.0789 18.6191 72.8164 18.402 73.5127 17.9678L70.2896 14.2393L70.0537 14.4077C69.3874 14.9767 69.0542 15.6468 69.0542 16.418C69.0542 17.0693 69.2601 17.6009 69.6719 18.0127C70.0911 18.417 70.634 18.6191 71.3003 18.6191ZM70.1099 8.68018C70.1099 9.2417 70.4393 9.94922 71.0981 10.8027L71.9629 10.23C72.4046 9.94548 72.7078 9.66846 72.8726 9.39893C73.0448 9.12939 73.1309 8.80745 73.1309 8.43311C73.1309 8.05876 72.9924 7.73307 72.7153 7.45605C72.4383 7.17904 72.0827 7.04053 71.6484 7.04053C71.1842 7.04053 70.8099 7.19027 70.5254 7.48975C70.2484 7.78923 70.1099 8.18604 70.1099 8.68018Z" fill="#F9E784"/>
</svg>
