<svg width="99" height="60" viewBox="0 0 99 60" fill="none" xmlns="http://www.w3.org/2000/svg">
<path d="M5.87891 20.9863V28H1.77734V8.09375H9.54297C11.0378 8.09375 12.3503 8.36719 13.4805 8.91406C14.6198 9.46094 15.4948 10.2402 16.1055 11.252C16.7161 12.2546 17.0215 13.3984 17.0215 14.6836C17.0215 16.6341 16.3516 18.1745 15.0117 19.3047C13.681 20.4258 11.8353 20.9863 9.47461 20.9863H5.87891ZM5.87891 17.6641H9.54297C10.6276 17.6641 11.4525 17.4089 12.0176 16.8984C12.5918 16.388 12.8789 15.6589 12.8789 14.7109C12.8789 13.7357 12.5918 12.9473 12.0176 12.3457C11.4434 11.7441 10.6504 11.4342 9.63867 11.416H5.87891V17.6641ZM18.7852 20.4668C18.7852 18.9993 19.0677 17.6914 19.6328 16.543C20.1979 15.3945 21.0091 14.5059 22.0664 13.877C23.1328 13.248 24.3678 12.9336 25.7715 12.9336C27.7676 12.9336 29.3945 13.5443 30.6523 14.7656C31.9193 15.987 32.6257 17.6458 32.7715 19.7422L32.7988 20.7539C32.7988 23.0234 32.1654 24.8464 30.8984 26.2227C29.6315 27.5898 27.9316 28.2734 25.7988 28.2734C23.666 28.2734 21.9616 27.5898 20.6855 26.2227C19.4186 24.8555 18.7852 22.9961 18.7852 20.6445V20.4668ZM22.7363 20.7539C22.7363 22.1576 23.0007 23.2331 23.5293 23.9805C24.0579 24.7188 24.8145 25.0879 25.7988 25.0879C26.7559 25.0879 27.5033 24.7233 28.041 23.9941C28.5788 23.2559 28.8477 22.0801 28.8477 20.4668C28.8477 19.0905 28.5788 18.0241 28.041 17.2676C27.5033 16.5111 26.7467 16.1328 25.7715 16.1328C24.8053 16.1328 24.0579 16.5111 23.5293 17.2676C23.0007 18.015 22.7363 19.1771 22.7363 20.7539ZM38.8691 13.207L38.9922 14.916C40.0495 13.5944 41.4668 12.9336 43.2441 12.9336C44.8118 12.9336 45.9785 13.3939 46.7441 14.3145C47.5098 15.235 47.9017 16.6113 47.9199 18.4434V28H43.9688V18.5391C43.9688 17.7005 43.7865 17.0944 43.4219 16.7207C43.0573 16.3379 42.4512 16.1465 41.6035 16.1465C40.4915 16.1465 39.6576 16.6204 39.1016 17.5684V28H35.1504V13.207H38.8691ZM55.6582 9.57031V13.207H58.1875V16.1055H55.6582V23.4883C55.6582 24.0352 55.763 24.4271 55.9727 24.6641C56.1823 24.901 56.5833 25.0195 57.1758 25.0195C57.6133 25.0195 58.0007 24.9876 58.3379 24.9238V27.918C57.5632 28.1549 56.7656 28.2734 55.9453 28.2734C53.1745 28.2734 51.7617 26.8743 51.707 24.0762V16.1055H49.5469V13.207H51.707V9.57031H55.6582ZM59.3633 20.4668C59.3633 18.9993 59.6458 17.6914 60.2109 16.543C60.776 15.3945 61.5872 14.5059 62.6445 13.877C63.7109 13.248 64.946 12.9336 66.3496 12.9336C68.3457 12.9336 69.9727 13.5443 71.2305 14.7656C72.4974 15.987 73.2038 17.6458 73.3496 19.7422L73.377 20.7539C73.377 23.0234 72.7435 24.8464 71.4766 26.2227C70.2096 27.5898 68.5098 28.2734 66.377 28.2734C64.2441 28.2734 62.5397 27.5898 61.2637 26.2227C59.9967 24.8555 59.3633 22.9961 59.3633 20.6445V20.4668ZM63.3145 20.7539C63.3145 22.1576 63.5788 23.2331 64.1074 23.9805C64.6361 24.7188 65.3926 25.0879 66.377 25.0879C67.334 25.0879 68.0814 24.7233 68.6191 23.9941C69.1569 23.2559 69.4258 22.0801 69.4258 20.4668C69.4258 19.0905 69.1569 18.0241 68.6191 17.2676C68.0814 16.5111 67.3249 16.1328 66.3496 16.1328C65.3835 16.1328 64.6361 16.5111 64.1074 17.2676C63.5788 18.015 63.3145 19.1771 63.3145 20.7539Z" fill="white"/>
<path d="M10.1328 48.0645L14.6445 33.0938H19.2109L12.2793 53H8L1.0957 33.0938H5.64844L10.1328 48.0645ZM25.1035 53H21.1523V38.207H25.1035V53ZM23.9414 32.2051H28.248L24.4609 36.4434H21.248L23.9414 32.2051ZM36.834 41.9121C36.2962 41.8392 35.8223 41.8027 35.4121 41.8027C33.9173 41.8027 32.9375 42.3086 32.4727 43.3203V53H28.5215V38.207H32.2539L32.3633 39.9707C33.1562 38.6126 34.2546 37.9336 35.6582 37.9336C36.0957 37.9336 36.5059 37.9928 36.8887 38.1113L36.834 41.9121ZM37.9004 45.4941C37.9004 43.2246 38.4382 41.3971 39.5137 40.0117C40.5983 38.6263 42.0566 37.9336 43.8887 37.9336C45.5111 37.9336 46.7734 38.4896 47.6758 39.6016L47.8398 38.207H51.4219V52.5078C51.4219 53.8021 51.1257 54.9277 50.5332 55.8848C49.9499 56.8418 49.125 57.571 48.0586 58.0723C46.9922 58.5736 45.7435 58.8242 44.3125 58.8242C43.2279 58.8242 42.1706 58.6055 41.1406 58.168C40.1107 57.7396 39.3314 57.1836 38.8027 56.5L40.5527 54.0938C41.5371 55.1966 42.7311 55.748 44.1348 55.748C45.1829 55.748 45.9987 55.4655 46.582 54.9004C47.1654 54.3444 47.457 53.5514 47.457 52.5215V51.7285C46.5456 52.7585 45.347 53.2734 43.8613 53.2734C42.084 53.2734 40.6439 52.5807 39.541 51.1953C38.4473 49.8008 37.9004 47.9551 37.9004 45.6582V45.4941ZM41.8516 45.7812C41.8516 47.1211 42.1204 48.1738 42.6582 48.9395C43.196 49.696 43.9342 50.0742 44.873 50.0742C46.0762 50.0742 46.9375 49.623 47.457 48.7207V42.5C46.9284 41.5977 46.0762 41.1465 44.9004 41.1465C43.9525 41.1465 43.2051 41.5339 42.6582 42.3086C42.1204 43.0833 41.8516 44.2409 41.8516 45.7812ZM63.3301 51.4961C62.3548 52.681 61.0059 53.2734 59.2832 53.2734C57.6973 53.2734 56.485 52.8177 55.6465 51.9062C54.8171 50.9948 54.3932 49.6595 54.375 47.9004V38.207H58.3262V47.7637C58.3262 49.304 59.028 50.0742 60.4316 50.0742C61.7715 50.0742 62.6921 49.6094 63.1934 48.6797V38.207H67.1582V53H63.4395L63.3301 51.4961ZM74.3086 53H70.3438V32H74.3086V53ZM86.1484 53C85.9661 52.6445 85.834 52.2025 85.752 51.6738C84.7949 52.7402 83.5508 53.2734 82.0195 53.2734C80.5703 53.2734 79.3672 52.8542 78.4102 52.0156C77.4622 51.1771 76.9883 50.1198 76.9883 48.8438C76.9883 47.276 77.5671 46.0729 78.7246 45.2344C79.8913 44.3958 81.5729 43.972 83.7695 43.9629H85.5879V43.1152C85.5879 42.4316 85.4102 41.8848 85.0547 41.4746C84.7083 41.0645 84.1569 40.8594 83.4004 40.8594C82.735 40.8594 82.2109 41.0189 81.8281 41.3379C81.4544 41.6569 81.2676 42.0944 81.2676 42.6504H77.3164C77.3164 41.7936 77.5807 41.0007 78.1094 40.2715C78.638 39.5423 79.3854 38.9727 80.3516 38.5625C81.3177 38.1432 82.4023 37.9336 83.6055 37.9336C85.4284 37.9336 86.873 38.3939 87.9395 39.3145C89.015 40.2259 89.5527 41.5111 89.5527 43.1699V49.582C89.5618 50.9857 89.7578 52.0475 90.1406 52.7676V53H86.1484ZM82.8809 50.252C83.4642 50.252 84.002 50.1243 84.4941 49.8691C84.9863 49.6048 85.3509 49.2539 85.5879 48.8164V46.2734H84.1113C82.1335 46.2734 81.0807 46.957 80.9531 48.3242L80.9395 48.5566C80.9395 49.0488 81.1126 49.4544 81.459 49.7734C81.8053 50.0924 82.2793 50.252 82.8809 50.252Z" fill="white"/>
<path d="M80.9707 20.6406C80.9707 19.7201 81.2259 18.8678 81.7363 18.084C82.2559 17.3001 83.2038 16.4297 84.5801 15.4727C83.9876 14.6797 83.5228 13.9368 83.1855 13.2441C82.8483 12.5423 82.6797 11.8132 82.6797 11.0566C82.6797 9.50716 83.1673 8.24935 84.1426 7.2832C85.127 6.30794 86.4486 5.82031 88.1074 5.82031C89.5931 5.82031 90.8099 6.26237 91.7578 7.14648C92.7148 8.0306 93.1934 9.13346 93.1934 10.4551C93.1934 12.041 92.3913 13.4401 90.7871 14.6523L89.2559 15.7598L92.6875 19.752C93.2253 18.6947 93.4941 17.528 93.4941 16.252H96.8574C96.8574 18.8405 96.2604 20.9368 95.0664 22.541L98.0469 26H93.5625L92.5371 24.8242C91.0697 25.7904 89.3835 26.2734 87.4785 26.2734C85.5098 26.2734 83.9329 25.7585 82.748 24.7285C81.5632 23.6895 80.9707 22.3268 80.9707 20.6406ZM87.6699 23.1016C88.6178 23.1016 89.5156 22.8372 90.3633 22.3086L86.4395 17.7695L86.1523 17.9746C85.3411 18.6673 84.9355 19.4831 84.9355 20.4219C84.9355 21.2148 85.1862 21.862 85.6875 22.3633C86.1979 22.8555 86.8587 23.1016 87.6699 23.1016ZM86.2207 11.002C86.2207 11.6855 86.6217 12.5469 87.4238 13.5859L88.4766 12.8887C89.0143 12.5423 89.3835 12.2051 89.584 11.877C89.7936 11.5488 89.8984 11.1569 89.8984 10.7012C89.8984 10.2454 89.7298 9.84896 89.3926 9.51172C89.0553 9.17448 88.6224 9.00586 88.0938 9.00586C87.5286 9.00586 87.0729 9.18815 86.7266 9.55273C86.3893 9.91732 86.2207 10.4004 86.2207 11.002Z" fill="#F9E784"/>
</svg>
